<svg version="1.1" id="Layer_1" xmlns="http://www.w3.org/2000/svg" xmlns:xlink="http://www.w3.org/1999/xlink" x="0px" y="0px"
	 width="100%" viewBox="0 0 811 871" enable-background="new 0 0 811 871" xml:space="preserve">
<path fill="#002060" opacity="1.000000" stroke="none" 
	d="
M443.000000,872.000000 
	C295.333374,872.000000 148.166748,872.000000 1.000099,872.000000 
	C1.000066,581.666809 1.000066,291.333588 1.000033,1.000293 
	C271.333130,1.000196 541.666260,1.000196 811.999512,1.000098 
	C811.999695,291.333038 811.999695,581.666077 811.999878,871.999512 
	C689.166687,872.000000 566.333313,872.000000 443.000000,872.000000 
M266.960907,619.055786 
	C266.960907,619.055786 266.860016,619.087219 267.180817,619.625977 
	C267.762482,619.848816 268.344147,620.071716 269.237122,620.746033 
	C269.765747,620.850952 270.294373,620.955872 271.240051,621.518433 
	C271.826508,621.674255 272.412994,621.830017 273.498474,622.496277 
	C274.610504,622.911743 275.722534,623.327271 277.347595,624.129333 
	C289.022583,629.569458 301.167938,633.416016 314.741821,635.259460 
	C330.485931,637.937378 346.084747,637.593262 361.971466,633.163208 
	C362.313354,633.183411 362.655243,633.203552 363.418549,633.720093 
	C378.881805,641.033325 394.345093,648.346558 410.372223,656.030151 
	C430.310486,663.349548 450.662323,668.843750 472.823181,670.253113 
	C488.068359,671.637390 503.183807,671.120789 518.873535,667.185059 
	C528.242371,663.444275 537.611206,659.703491 547.664307,655.827515 
	C550.441589,654.212891 553.218933,652.598206 556.697205,650.921387 
	C586.972351,633.056702 611.303162,609.026062 630.127441,579.453918 
	C650.939819,546.758606 662.505798,510.940430 664.795715,472.260468 
	C665.333252,463.180695 664.524109,454.021149 664.289368,443.992218 
	C663.628296,437.984222 662.967163,431.976257 662.339722,425.109222 
	C659.853394,416.076080 657.367065,407.042938 654.844788,397.273865 
	C649.815002,383.244019 642.375183,370.681946 631.885620,359.342163 
	C631.578308,358.879700 631.270996,358.417236 631.029541,357.151855 
	C631.716919,353.764587 632.554199,350.399841 633.066467,346.986298 
	C635.684143,329.545258 633.914246,312.185059 631.396301,294.940369 
	C629.829529,284.210266 627.118408,273.647278 624.960510,262.227844 
	C621.319885,251.813583 617.679321,241.399307 613.976746,230.259659 
	C608.962891,221.184784 603.948975,212.109909 598.760742,202.375107 
	C593.304199,195.864899 587.847656,189.354691 582.031250,182.251755 
	C574.716003,174.476974 565.876770,168.950470 556.086487,164.178665 
	C555.750061,163.766327 555.413696,163.353989 554.689880,162.481796 
	C554.129639,162.307251 553.569458,162.132690 553.020569,161.977127 
	C553.020569,161.977127 553.046204,161.964493 552.712769,161.364517 
	C541.397339,156.172287 530.320496,150.354034 518.712158,145.930420 
	C499.984375,138.793777 480.470551,135.116791 460.377106,133.691132 
	C442.154968,132.398270 424.145233,133.061340 406.239532,136.110397 
	C386.480835,139.475037 367.300751,145.093979 349.298615,154.013504 
	C340.270721,158.486542 331.764679,164.012924 322.473328,169.207520 
	C322.010437,169.521317 321.547546,169.835114 320.617218,170.278351 
	C320.320038,170.436325 320.101318,170.668320 319.363556,171.294815 
	C305.137543,180.208145 292.660339,191.118561 282.291656,204.326218 
	C268.971924,221.292999 259.743408,239.973999 259.078644,262.563782 
	C259.078522,262.738708 259.078400,262.913666 258.338562,263.001953 
	C253.517532,265.583801 248.374146,267.708496 243.938309,270.836609 
	C232.438721,278.945862 221.250641,287.496857 209.325089,296.152130 
	C200.573441,304.767365 191.821777,313.382568 182.612335,322.488892 
	C176.691559,330.556152 170.770782,338.623413 164.282303,347.095703 
	C159.381470,357.362427 154.480621,367.629150 149.163040,378.461395 
	C147.238419,389.667847 145.313782,400.874268 143.144226,412.820068 
	C143.164429,415.576202 143.184616,418.332306 143.005127,421.990997 
	C143.429184,429.459320 143.423157,436.981201 144.345825,444.387390 
	C151.301102,500.216064 175.290085,547.379333 216.865387,585.402832 
	C231.278641,598.584778 247.134872,609.762756 264.863708,618.150696 
	C264.863708,618.150696 264.838501,618.116516 265.161530,618.669983 
	C265.768951,618.832947 266.376404,618.995972 266.960907,619.055786 
M643.732544,611.643494 
	C640.791992,613.024658 637.851501,614.405762 634.248596,615.982361 
	C631.742554,618.285828 629.236572,620.589233 626.164429,623.231323 
	C624.372131,626.124268 622.579773,629.017273 620.214050,632.373047 
	C619.314880,637.916687 618.415710,643.460266 617.363953,649.775146 
	C618.250549,653.514221 619.137207,657.253235 620.051392,661.715454 
	C627.373352,681.666321 653.480774,693.110596 674.893616,680.290771 
	C678.031494,677.576416 681.169434,674.862061 684.867065,671.791748 
	C687.365845,666.550476 689.864685,661.309204 692.743958,655.425171 
	C692.883606,651.930481 693.023315,648.435852 693.285339,644.123108 
	C692.697693,641.353149 692.110046,638.583252 691.379333,635.067200 
	C689.822937,632.052979 688.266541,629.038696 686.483154,625.422424 
	C685.081116,623.798950 683.780334,622.073120 682.260681,620.568359 
	C671.946838,610.355103 656.084167,606.582336 643.732544,611.643494 
M468.207703,56.340412 
	C456.537750,74.558319 462.101318,99.693115 480.347107,109.706184 
	C484.216431,111.176071 488.085754,112.645958 492.647034,114.538895 
	C495.766174,114.684380 498.885345,114.829865 502.825562,115.068497 
	C505.882416,114.407883 508.939270,113.747261 512.743713,113.043221 
	C530.999695,106.422562 541.397278,88.076241 537.430481,69.483864 
	C533.430603,50.736519 516.682251,37.906548 497.234039,39.164951 
	C494.486725,39.770229 491.739380,40.375507 488.249054,40.980923 
	C485.093842,42.614555 481.938599,44.248188 478.144897,46.059872 
	C475.010956,49.357361 471.877014,52.654850 468.207703,56.340412 
M95.774826,548.628357 
	C116.469368,548.626892 132.914825,533.866394 134.671616,513.110107 
	C133.856949,507.942078 133.042297,502.774017 131.825348,497.020935 
	C129.475677,493.041046 127.126007,489.061157 124.492836,484.490570 
	C121.018776,481.946655 117.544724,479.402710 113.613991,476.331604 
	C110.281212,475.219818 107.023216,473.726593 103.603889,473.056305 
	C75.252434,467.498627 51.443134,494.644104 60.582691,522.881714 
	C62.706234,526.596680 64.829781,530.311707 67.130524,534.680908 
	C71.377205,537.963135 75.623886,541.245422 80.389908,544.960999 
	C85.243607,546.078491 90.097305,547.196045 95.774826,548.628357 
M459.494629,803.017761 
	C463.324371,802.929138 467.175690,803.067749 470.979523,802.706421 
	C480.005127,801.849121 488.403900,799.277893 494.259888,791.789856 
	C499.338287,785.296082 499.831055,777.777527 498.280518,769.933228 
	C496.682220,761.847229 491.106720,757.760986 483.590973,755.556885 
	C484.070068,754.994812 484.227142,754.645508 484.488525,754.527771 
	C493.316040,750.548706 497.121674,744.331482 496.791809,734.382935 
	C496.481903,725.035706 492.037567,718.457947 483.064209,715.625488 
	C477.885498,713.990845 472.350372,712.921692 466.933899,712.720154 
	C455.357880,712.289307 443.754700,712.588196 432.225525,712.588196 
	C432.225525,742.927124 432.225525,772.829102 432.225525,803.017761 
	C441.211548,803.017761 449.854126,803.017761 459.494629,803.017761 
M242.047852,758.500000 
	C242.047852,773.241028 242.047852,787.982117 242.047852,801.990173 
	C255.338196,801.990173 268.050598,803.039734 280.521423,801.751343 
	C300.705475,799.665894 313.504883,786.722656 316.470276,766.786316 
	C317.389252,760.608276 317.398010,754.096802 316.593353,747.897705 
	C314.223785,729.642578 302.525208,716.728027 284.342621,714.058289 
	C271.764496,712.211487 258.827393,712.798462 246.049088,712.343445 
	C244.791428,712.298645 243.522430,712.572327 242.047852,712.719238 
	C242.047852,727.895142 242.047852,742.697571 242.047852,758.500000 
M568.747131,780.930969 
	C563.871765,787.526611 555.671509,789.786438 546.344482,787.104675 
	C539.786499,785.219177 536.449524,780.453674 535.796448,771.884216 
	C535.594299,769.230835 535.508057,766.562805 535.503418,763.901245 
	C535.476746,748.580566 535.490540,733.259949 535.490662,717.939270 
	C535.490723,716.168274 535.490662,714.397339 535.490662,712.648438 
	C528.717773,712.648438 522.640381,712.648438 516.189575,712.648438 
	C516.189575,724.942627 516.115967,736.904785 516.213196,748.865540 
	C516.288879,758.182068 515.992615,767.554993 516.912537,776.798279 
	C518.191528,789.649658 525.661499,798.376831 537.998291,801.899536 
	C544.106995,803.643799 550.802612,804.135620 557.194153,803.939026 
	C578.259460,803.291016 590.641174,790.255005 590.755798,769.159363 
	C590.850769,751.674377 590.780396,734.188416 590.766418,716.702881 
	C590.765381,715.415161 590.627502,714.127502 590.538574,712.585693 
	C584.188599,712.585693 578.118835,712.585693 571.441223,712.585693 
	C571.441223,714.533203 571.441223,716.318237 571.441223,718.103271 
	C571.441101,733.923523 571.622681,749.747131 571.332764,765.562073 
	C571.242981,770.460327 569.871399,775.335083 568.747131,780.930969 
M335.310181,745.499817 
	C335.471741,755.658386 335.128967,765.856445 335.920563,775.965698 
	C336.946472,789.067627 344.381592,797.815125 356.775452,801.942322 
	C366.319641,805.120544 376.153503,805.087585 385.847321,802.486328 
	C400.376770,798.587341 409.155487,788.461487 409.586426,773.424866 
	C410.158844,753.449890 409.727417,733.446167 409.701508,713.454773 
	C409.701172,713.195190 409.361694,712.935974 409.162170,712.650269 
	C403.107117,712.650269 397.052734,712.650269 390.614990,712.650269 
	C390.614990,730.125000 390.651855,747.264282 390.584381,764.403259 
	C390.570648,767.891968 390.397003,771.413574 389.885437,774.858948 
	C389.081573,780.273010 386.494232,784.603394 381.126862,786.703064 
	C366.802155,792.306824 355.527496,785.059448 354.796417,769.801331 
	C354.700745,767.805237 354.673462,765.804199 354.672180,763.805481 
	C354.662445,748.474243 354.666992,733.142944 354.667084,717.811707 
	C354.667084,716.065186 354.667084,714.318665 354.667084,712.690552 
	C347.774780,712.690552 341.699951,712.690552 335.310181,712.690552 
	C335.310181,723.543884 335.310181,734.021790 335.310181,745.499817 
M631.969238,773.948853 
	C631.573120,768.143738 637.080200,767.987854 640.061646,764.843872 
	C647.456421,776.718811 654.528015,788.165100 661.731995,799.527466 
	C662.614624,800.919739 664.155457,802.786011 665.476746,802.857666 
	C671.875671,803.204895 678.303711,803.014282 685.631592,803.014282 
	C674.739685,785.703491 664.325684,769.152161 653.822937,752.459839 
	C664.227234,739.245972 674.535217,726.154541 685.426331,712.322449 
	C678.370178,712.322449 672.557434,712.162659 666.764221,712.429016 
	C665.215149,712.500183 663.250549,713.494751 662.283142,714.708313 
	C653.048889,726.292603 643.991394,738.017761 634.871155,749.693115 
	C634.136658,750.633484 633.312927,751.504028 631.824951,753.221558 
	C631.824951,739.004028 631.824951,725.913757 631.824951,712.576782 
	C625.391479,712.576782 619.316895,712.576782 613.139038,712.576782 
	C613.139038,742.777527 613.139038,772.786987 613.139038,802.655457 
	C619.585938,802.655457 625.658630,802.655457 631.969727,802.655457 
	C631.969727,793.151978 631.969727,784.009033 631.969238,773.948853 
M181.528168,803.019409 
	C195.299728,803.019409 209.071274,803.019409 222.752625,803.019409 
	C222.752625,797.365356 222.752625,792.323364 222.752625,786.899048 
	C211.747101,786.899048 201.154572,786.899048 190.411011,786.899048 
	C190.411011,779.076904 190.411011,771.659851 190.411011,763.753479 
	C200.562576,763.753479 210.480927,763.753479 220.595901,763.753479 
	C220.595901,758.226685 220.595901,753.193420 220.595901,747.734741 
	C210.341446,747.734741 200.422623,747.734741 190.443222,747.734741 
	C190.443222,741.054260 190.443222,734.807129 190.443222,728.011963 
	C201.435928,728.011963 212.163437,728.011963 222.861267,728.011963 
	C222.861267,722.547302 222.861267,717.638245 222.861267,712.640686 
	C205.475967,712.640686 188.402191,712.640686 171.306351,712.640686 
	C171.306351,742.869141 171.306351,772.775269 171.306351,803.019409 
	C174.595703,803.019409 177.568298,803.019409 181.528168,803.019409 
z"/>
<path fill="#71A5E6" opacity="1.000000" stroke="none" 
	d="
M624.920837,263.009277 
	C627.118408,273.647278 629.829529,284.210266 631.396301,294.940369 
	C633.914246,312.185059 635.684143,329.545258 633.066467,346.986298 
	C632.554199,350.399841 631.716919,353.764587 630.709045,357.395386 
	C629.179688,356.496582 627.982727,355.341248 626.760132,354.213745 
	C611.521179,340.160461 592.973450,338.102692 577.477112,348.628418 
	C567.923096,355.117889 561.613586,364.148712 557.046814,374.501495 
	C548.501099,393.874603 547.154297,414.344421 547.710022,435.094238 
	C543.984314,434.568970 540.647217,434.295074 537.409485,433.574402 
	C509.673462,427.400452 489.999786,410.305573 475.365173,386.861755 
	C458.607544,360.017029 453.382721,330.092590 453.458801,299.001953 
	C455.716919,298.898560 457.584412,299.020752 459.352600,298.658325 
	C485.816193,293.234192 512.259888,287.712799 538.722839,282.285553 
	C554.477112,279.054596 570.310608,276.190277 586.008545,272.710388 
	C599.055054,269.818237 611.955627,266.268005 624.920837,263.009277 
z"/>
<path fill="#1860C9" opacity="1.000000" stroke="none" 
	d="
M258.997040,262.045563 
	C259.743408,239.973999 268.971924,221.292999 282.291656,204.326218 
	C292.660339,191.118561 305.137543,180.208145 319.890320,171.058350 
	C320.707672,170.665054 320.930176,170.440735 321.084656,170.148926 
	C321.547546,169.835114 322.010437,169.521317 323.133911,169.125031 
	C325.991791,168.304245 328.206757,167.614349 330.383728,166.820236 
	C354.115417,158.163254 376.303375,160.895920 397.055542,175.503265 
	C410.857635,185.218491 420.348114,198.514481 428.736511,212.763550 
	C429.606140,214.240799 429.614563,216.225052 429.835205,218.253357 
	C428.042053,220.432877 426.459320,222.353180 424.826874,224.230194 
	C408.898956,242.544342 392.257111,260.104187 371.970154,273.703857 
	C352.183472,252.472809 327.448029,246.368561 300.206879,250.639648 
	C286.218018,252.832916 272.717987,258.143646 258.997040,262.045563 
z"/>
<path fill="#FDA706" opacity="1.000000" stroke="none" 
	d="
M209.938232,295.871521 
	C221.250641,287.496857 232.438721,278.945862 243.938309,270.836609 
	C248.374146,267.708496 253.517532,265.583801 258.724915,263.438232 
	C260.547699,278.234894 267.559082,288.790802 280.875641,294.577972 
	C285.668854,296.661011 290.947418,297.627136 296.095764,299.225464 
	C296.187042,299.347931 296.595001,299.469360 296.595001,299.469360 
	C296.595001,299.469360 296.976379,299.243713 297.425659,299.185852 
	C300.585480,299.204407 303.296051,299.280823 306.139740,299.671631 
	C313.265198,301.367889 317.321411,306.775513 321.869019,311.460510 
	C324.403076,314.071167 326.724396,316.889282 329.124634,319.628723 
	C335.561249,326.974915 341.954224,334.359680 348.427887,341.673035 
	C358.294525,352.819550 368.214508,363.918854 378.061737,375.391541 
	C366.779266,397.409546 350.236664,414.273590 330.217224,428.064972 
	C324.185364,420.983765 318.595062,413.992523 312.705078,407.263550 
	C303.850922,397.148315 294.741821,387.256714 285.823090,377.197327 
	C273.716675,363.542480 261.681061,349.824860 249.628128,336.122681 
	C242.835663,328.400787 236.392700,320.337708 229.191422,313.019623 
	C223.180145,306.910797 219.289886,298.262299 209.938232,295.871521 
z"/>
<path fill="#4ECDD9" opacity="1.000000" stroke="none" 
	d="
M471.998352,669.994629 
	C450.662323,668.843750 430.310486,663.349548 410.135315,655.395691 
	C410.432495,652.507507 410.806671,650.201294 411.527191,648.008850 
	C415.517365,635.867554 419.562988,623.744141 423.643921,611.632935 
	C430.009766,592.740845 436.437927,573.869751 442.805176,554.978088 
	C450.591583,531.875793 458.342407,508.761505 466.476196,485.721069 
	C485.913727,494.140167 504.983673,502.490570 523.989990,511.209076 
	C522.861267,514.178284 521.658142,516.732422 520.754944,519.388611 
	C516.907776,530.703003 513.140137,542.044617 509.360229,553.381775 
	C497.376465,589.325378 485.370331,625.261597 473.479431,661.235901 
	C472.560822,664.015015 472.472534,667.068604 471.998352,669.994629 
z"/>
<path fill="#1799AC" opacity="1.000000" stroke="none" 
	d="
M664.334473,444.898315 
	C664.524109,454.021149 665.333252,463.180695 664.795715,472.260468 
	C662.505798,510.940430 650.939819,546.758606 630.127441,579.453918 
	C611.303162,609.026062 586.972351,633.056702 556.392944,650.611816 
	C556.913513,649.300049 557.592224,648.113892 558.585938,647.324341 
	C567.353638,640.358398 573.392944,631.375671 578.051331,621.341003 
	C585.617065,605.043884 586.288696,587.772034 584.806213,570.334412 
	C584.309448,564.491028 582.340271,558.772766 581.041626,552.589172 
	C580.885193,551.207886 580.886597,550.177795 580.553589,549.270386 
	C576.700684,538.772949 572.797180,528.294189 568.935059,517.854492 
	C568.963074,517.898560 568.886230,517.969238 569.364014,517.962158 
	C577.442383,517.640442 585.086487,517.732971 592.634644,516.927490 
	C608.872559,515.194702 623.935242,510.088104 637.267578,499.734802 
	C646.557617,492.034332 653.673706,483.087860 658.082764,471.685486 
	C659.840881,463.904816 661.419250,456.451813 663.014404,448.617676 
	C663.465698,447.123840 663.900085,446.011078 664.334473,444.898315 
z"/>
<path fill="#0933A6" opacity="1.000000" stroke="none" 
	d="
M430.022583,217.974060 
	C429.614563,216.225052 429.606140,214.240799 428.736511,212.763550 
	C420.348114,198.514481 410.857635,185.218491 397.055542,175.503265 
	C376.303375,160.895920 354.115417,158.163254 330.383728,166.820236 
	C328.206757,167.614349 325.991791,168.304245 323.408569,169.052734 
	C331.764679,164.012924 340.270721,158.486542 349.298615,154.013504 
	C367.300751,145.093979 386.480835,139.475037 406.239532,136.110397 
	C424.145233,133.061340 442.154968,132.398270 460.377106,133.691132 
	C480.470551,135.116791 499.984375,138.793777 518.712158,145.930420 
	C530.320496,150.354034 541.397339,156.172287 552.485596,161.679428 
	C550.984436,161.632996 549.701904,161.299164 548.437683,160.906311 
	C514.179993,150.260849 485.680389,161.525421 459.849915,184.245667 
	C451.677338,193.246521 443.805115,202.100174 435.650635,211.144348 
	C434.101654,213.566162 432.834991,215.797424 431.311584,218.034454 
	C430.710724,218.018158 430.366638,217.996109 430.022583,217.974060 
z"/>
<path fill="#F0441C" opacity="1.000000" stroke="none" 
	d="
M264.837280,618.184814 
	C247.134872,609.762756 231.278641,598.584778 216.865387,585.402832 
	C175.290085,547.379333 151.301102,500.216064 144.345825,444.387390 
	C143.423157,436.981201 143.429184,429.459320 143.317841,421.830994 
	C146.848831,440.588684 154.974976,456.982758 169.438919,469.750122 
	C183.736588,482.370758 200.524246,490.405975 219.406982,495.000488 
	C230.505981,496.757538 241.217026,498.435028 252.020538,500.225647 
	C252.113007,500.338745 252.033401,500.622223 251.900055,500.962372 
	C241.914642,516.533264 235.266205,532.956787 233.166412,551.496704 
	C233.097397,553.254395 233.088745,554.611694 233.052734,556.374878 
	C233.052307,557.867371 233.079269,558.954041 233.079590,560.483032 
	C233.532578,574.620178 237.279068,587.179138 246.015961,598.363342 
	C251.225311,603.900574 256.386597,609.083984 261.503265,614.311157 
	C262.692535,615.526123 263.729980,616.889648 264.837280,618.184814 
z"/>
<path fill="#3FC8D4" opacity="1.000000" stroke="none" 
	d="
M472.410767,670.123901 
	C472.472534,667.068604 472.560822,664.015015 473.479431,661.235901 
	C485.370331,625.261597 497.376465,589.325378 509.360229,553.381775 
	C513.140137,542.044617 516.907776,530.703003 520.754944,519.388611 
	C521.658142,516.732422 522.861267,514.178284 524.409790,511.201813 
	C538.262817,513.198364 551.632385,515.570251 564.948914,518.311646 
	C564.015686,521.007874 563.054260,523.307373 562.267395,525.665283 
	C547.602783,569.610718 532.908081,613.546387 518.425781,657.551941 
	C517.462463,660.479187 518.146729,663.948608 518.064636,667.165894 
	C503.183807,671.120789 488.068359,671.637390 472.410767,670.123901 
z"/>
<path fill="#FB9B0C" opacity="1.000000" stroke="none" 
	d="
M209.631653,296.011841 
	C219.289886,298.262299 223.180145,306.910797 229.191422,313.019623 
	C236.392700,320.337708 242.835663,328.400787 249.628128,336.122681 
	C261.681061,349.824860 273.716675,363.542480 285.823090,377.197327 
	C294.741821,387.256714 303.850922,397.148315 312.705078,407.263550 
	C318.595062,413.992523 324.185364,420.983765 330.009888,428.347656 
	C319.424347,435.946930 308.738708,443.056122 298.038879,449.773407 
	C297.465637,447.876709 297.269379,446.062408 296.290894,444.915527 
	C287.464722,434.570251 278.588684,424.264404 269.554565,414.100464 
	C259.852966,403.185577 249.855331,392.533264 240.183121,381.592865 
	C223.815933,363.079590 207.690063,344.351990 191.204849,325.945465 
	C189.343964,323.867676 185.821884,323.277710 183.070129,321.997803 
	C191.821777,313.382568 200.573441,304.767365 209.631653,296.011841 
z"/>
<path fill="#5D6817" opacity="1.000000" stroke="none" 
	d="
M362.997131,633.223755 
	C362.655243,633.203552 362.313354,633.183411 361.508423,632.799072 
	C353.084839,625.930664 345.124329,619.426453 337.005981,612.619141 
	C330.607300,603.521606 324.366486,594.727051 318.062561,585.574585 
	C311.536499,572.582458 308.795624,559.111267 309.025574,544.585815 
	C311.791992,535.119263 314.485168,526.055359 317.217896,516.875916 
	C317.257477,516.760437 317.501465,516.750977 317.883362,516.892883 
	C331.148224,523.743835 344.031158,530.452942 357.094666,537.444214 
	C367.744812,544.564819 376.105377,553.597595 383.945160,563.596680 
	C390.633453,573.976440 394.811707,584.831604 394.940094,597.402588 
	C393.820496,610.050537 388.367981,619.789734 377.831299,626.202515 
	C373.183655,629.031128 367.959534,630.912354 362.997131,633.223755 
z"/>
<path fill="#689ADF" opacity="1.000000" stroke="none" 
	d="
M624.940674,262.618561 
	C611.955627,266.268005 599.055054,269.818237 586.008545,272.710388 
	C570.310608,276.190277 554.477112,279.054596 538.722839,282.285553 
	C512.259888,287.712799 485.816193,293.234192 459.352600,298.658325 
	C457.584412,299.020752 455.716919,298.898560 453.334290,298.604126 
	C451.198456,287.139038 449.623901,276.071564 448.476440,265.003052 
	C450.232086,264.938141 451.596222,265.048157 452.884033,264.784821 
	C482.634735,258.701477 512.394714,252.661621 542.115479,246.434814 
	C566.115356,241.406570 590.066162,236.143784 614.038696,230.985046 
	C617.679321,241.399307 621.319885,251.813583 624.940674,262.618561 
z"/>
<path fill="#57D3D3" opacity="1.000000" stroke="none" 
	d="
M363.207825,633.471924 
	C367.959534,630.912354 373.183655,629.031128 377.831299,626.202515 
	C388.367981,619.789734 393.820496,610.050537 395.305115,597.384277 
	C397.336029,594.643188 399.541138,592.529236 400.407501,589.963318 
	C412.098999,555.336731 423.615753,520.651123 435.136841,485.967133 
	C436.225281,482.690369 437.051056,479.326324 438.390869,475.985901 
	C447.891510,479.196777 457.000061,482.424591 466.108612,485.652405 
	C458.342407,508.761505 450.591583,531.875793 442.805176,554.978088 
	C436.437927,573.869751 430.009766,592.740845 423.643921,611.632935 
	C419.562988,623.744141 415.517365,635.867554 411.527191,648.008850 
	C410.806671,650.201294 410.432495,652.507507 409.853394,655.210510 
	C394.345093,648.346558 378.881805,641.033325 363.207825,633.471924 
z"/>
<path fill="#F99011" opacity="1.000000" stroke="none" 
	d="
M182.841232,322.243347 
	C185.821884,323.277710 189.343964,323.867676 191.204849,325.945465 
	C207.690063,344.351990 223.815933,363.079590 240.183121,381.592865 
	C249.855331,392.533264 259.852966,403.185577 269.554565,414.100464 
	C278.588684,424.264404 287.464722,434.570251 296.290894,444.915527 
	C297.269379,446.062408 297.465637,447.876709 297.904968,450.076508 
	C290.654510,457.234253 283.523712,463.696991 276.035706,470.073517 
	C267.461487,460.717285 259.263123,451.430664 251.023254,442.181000 
	C238.121796,427.698486 225.171738,413.259216 212.283310,398.765137 
	C205.678101,391.337097 199.280807,383.721191 192.576202,376.385162 
	C183.440857,366.389465 174.101746,356.580017 164.850006,346.690704 
	C170.770782,338.623413 176.691559,330.556152 182.841232,322.243347 
z"/>
<path fill="#137AB4" opacity="1.000000" stroke="none" 
	d="
M548.144653,435.138489 
	C547.154297,414.344421 548.501099,393.874603 557.046814,374.501495 
	C561.613586,364.148712 567.923096,355.117889 577.477112,348.628418 
	C592.973450,338.102692 611.521179,340.160461 626.760132,354.213745 
	C627.982727,355.341248 629.179688,356.496582 630.676086,357.796875 
	C631.270996,358.417236 631.578308,358.879700 631.693359,359.845276 
	C628.634155,369.177094 625.767212,378.005768 622.655151,387.079224 
	C617.941772,394.545166 613.473389,401.766327 608.715942,409.152222 
	C602.585205,414.525085 596.743591,419.733276 590.563660,425.014587 
	C580.317444,431.133698 569.517456,434.346893 557.601074,435.223145 
	C554.288269,435.142273 551.361084,435.077606 548.387573,435.104279 
	C548.341309,435.195618 548.144653,435.138489 548.144653,435.138489 
z"/>
<path fill="#F78715" opacity="1.000000" stroke="none" 
	d="
M164.566162,346.893188 
	C174.101746,356.580017 183.440857,366.389465 192.576202,376.385162 
	C199.280807,383.721191 205.678101,391.337097 212.283310,398.765137 
	C225.171738,413.259216 238.121796,427.698486 251.023254,442.181000 
	C259.263123,451.430664 267.461487,460.717285 275.881104,470.381134 
	C269.489594,478.220795 262.895416,485.666626 255.951538,493.033325 
	C252.840271,489.908447 250.067978,486.872314 247.318985,483.815186 
	C238.122742,473.588226 228.869400,463.411652 219.760315,453.107544 
	C208.353165,440.203979 197.091125,427.172241 185.721405,414.235382 
	C175.990234,403.162994 166.291748,392.058228 156.329941,381.195984 
	C154.754044,379.477661 151.862854,378.965607 149.579773,377.895844 
	C154.480621,367.629150 159.381470,357.362427 164.566162,346.893188 
z"/>
<path fill="#6190D9" opacity="1.000000" stroke="none" 
	d="
M614.007690,230.622360 
	C590.066162,236.143784 566.115356,241.406570 542.115479,246.434814 
	C512.394714,252.661621 482.634735,258.701477 452.884033,264.784821 
	C451.596222,265.048157 450.232086,264.938141 448.326019,264.644409 
	C445.060486,254.880035 442.372437,245.473297 440.096191,236.061615 
	C443.108917,236.043289 445.768982,236.379044 448.299622,235.950562 
	C455.646698,234.706528 462.955414,233.221619 470.255127,231.714600 
	C507.254700,224.076065 544.265137,216.487854 581.222717,208.650574 
	C587.252625,207.371872 593.037109,204.936050 598.935059,203.035034 
	C603.948975,212.109909 608.962891,221.184784 614.007690,230.622360 
z"/>
<path fill="#FBFBFC" opacity="1.000000" stroke="none" 
	d="
M458.995667,803.017761 
	C449.854126,803.017761 441.211548,803.017761 432.225525,803.017761 
	C432.225525,772.829102 432.225525,742.927124 432.225525,712.588196 
	C443.754700,712.588196 455.357880,712.289307 466.933899,712.720154 
	C472.350372,712.921692 477.885498,713.990845 483.064209,715.625488 
	C492.037567,718.457947 496.481903,725.035706 496.791809,734.382935 
	C497.121674,744.331482 493.316040,750.548706 484.488525,754.527771 
	C484.227142,754.645508 484.070068,754.994812 483.590973,755.556885 
	C491.106720,757.760986 496.682220,761.847229 498.280518,769.933228 
	C499.831055,777.777527 499.338287,785.296082 494.259888,791.789856 
	C488.403900,799.277893 480.005127,801.849121 470.979523,802.706421 
	C467.175690,803.067749 463.324371,802.929138 458.995667,803.017761 
M451.039856,780.413940 
	C451.039856,782.516846 451.039856,784.619751 451.039856,787.437134 
	C457.881134,787.046936 464.207550,787.195068 470.345947,786.192261 
	C476.429047,785.198547 479.151611,780.904968 479.032135,774.648926 
	C478.926971,769.142639 476.033264,765.215027 470.134796,764.362976 
	C463.972137,763.472656 457.664886,763.583130 451.039856,763.236084 
	C451.039856,769.183411 451.039856,774.307617 451.039856,780.413940 
M470.793610,729.315674 
	C464.303558,728.769409 457.813477,728.223083 451.402344,727.683472 
	C451.402344,735.244751 451.402344,741.629211 451.402344,747.732727 
	C457.392639,747.732727 463.046082,748.076233 468.634491,747.620972 
	C472.884979,747.274597 476.117981,744.807739 476.812012,740.193726 
	C477.516724,735.508545 476.423462,731.588928 470.793610,729.315674 
z"/>
<path fill="#FBFBFC" opacity="1.000000" stroke="none" 
	d="
M242.047852,758.000000 
	C242.047852,742.697571 242.047852,727.895142 242.047852,712.719238 
	C243.522430,712.572327 244.791428,712.298645 246.049088,712.343445 
	C258.827393,712.798462 271.764496,712.211487 284.342621,714.058289 
	C302.525208,716.728027 314.223785,729.642578 316.593353,747.897705 
	C317.398010,754.096802 317.389252,760.608276 316.470276,766.786316 
	C313.504883,786.722656 300.705475,799.665894 280.521423,801.751343 
	C268.050598,803.039734 255.338196,801.990173 242.047852,801.990173 
	C242.047852,787.982117 242.047852,773.241028 242.047852,758.000000 
M295.435974,770.657166 
	C295.955750,764.235962 297.175507,757.776428 296.827118,751.402710 
	C296.335205,742.402283 292.929413,734.502930 283.922272,730.524536 
	C276.709625,727.338684 269.128723,727.924438 261.611572,728.329773 
	C261.611572,748.165527 261.611572,767.515869 261.611572,786.831787 
	C280.739532,788.291504 289.757874,784.080566 295.435974,770.657166 
z"/>
<path fill="#011007" opacity="1.000000" stroke="none" 
	d="
M296.004486,299.102966 
	C290.947418,297.627136 285.668854,296.661011 280.875641,294.577972 
	C267.559082,288.790802 260.547699,278.234894 259.094757,263.481598 
	C259.078400,262.913666 259.078522,262.738708 259.037842,262.304688 
	C272.717987,258.143646 286.218018,252.832916 300.206879,250.639648 
	C327.448029,246.368561 352.183472,252.472809 371.892914,273.816772 
	C371.993317,274.218201 371.941559,274.486847 371.668488,274.714539 
	C351.572205,288.364838 330.606873,298.728607 306.006592,299.357208 
	C303.296051,299.280823 300.585480,299.204407 297.192200,299.084778 
	C296.341125,299.062012 296.172791,299.082520 296.004486,299.102966 
z"/>
<path fill="#5A88D4" opacity="1.000000" stroke="none" 
	d="
M598.847900,202.705078 
	C593.037109,204.936050 587.252625,207.371872 581.222717,208.650574 
	C544.265137,216.487854 507.254700,224.076065 470.255127,231.714600 
	C462.955414,233.221619 455.646698,234.706528 448.299622,235.950562 
	C445.768982,236.379044 443.108917,236.043289 439.872620,235.801971 
	C436.680969,229.707733 434.124634,223.868210 431.568359,218.028687 
	C432.834991,215.797424 434.101654,213.566162 436.022461,211.313568 
	C438.636078,211.484787 440.690338,212.159393 442.540405,211.795563 
	C461.743378,208.019226 480.928467,204.147812 500.089081,200.161346 
	C527.536011,194.450882 554.958313,188.622498 582.391113,182.844482 
	C587.847656,189.354691 593.304199,195.864899 598.847900,202.705078 
z"/>
<path fill="#F8F9FB" opacity="1.000000" stroke="none" 
	d="
M568.916931,780.575806 
	C569.871399,775.335083 571.242981,770.460327 571.332764,765.562073 
	C571.622681,749.747131 571.441101,733.923523 571.441223,718.103271 
	C571.441223,716.318237 571.441223,714.533203 571.441223,712.585693 
	C578.118835,712.585693 584.188599,712.585693 590.538574,712.585693 
	C590.627502,714.127502 590.765381,715.415161 590.766418,716.702881 
	C590.780396,734.188416 590.850769,751.674377 590.755798,769.159363 
	C590.641174,790.255005 578.259460,803.291016 557.194153,803.939026 
	C550.802612,804.135620 544.106995,803.643799 537.998291,801.899536 
	C525.661499,798.376831 518.191528,789.649658 516.912537,776.798279 
	C515.992615,767.554993 516.288879,758.182068 516.213196,748.865540 
	C516.115967,736.904785 516.189575,724.942627 516.189575,712.648438 
	C522.640381,712.648438 528.717773,712.648438 535.490662,712.648438 
	C535.490662,714.397339 535.490723,716.168274 535.490662,717.939270 
	C535.490540,733.259949 535.476746,748.580566 535.503418,763.901245 
	C535.508057,766.562805 535.594299,769.230835 535.796448,771.884216 
	C536.449524,780.453674 539.786499,785.219177 546.344482,787.104675 
	C555.671509,789.786438 563.871765,787.526611 568.916931,780.575806 
z"/>
<path fill="#F8F9FB" opacity="1.000000" stroke="none" 
	d="
M335.310181,744.999756 
	C335.310181,734.021790 335.310181,723.543884 335.310181,712.690552 
	C341.699951,712.690552 347.774780,712.690552 354.667084,712.690552 
	C354.667084,714.318665 354.667084,716.065186 354.667084,717.811707 
	C354.666992,733.142944 354.662445,748.474243 354.672180,763.805481 
	C354.673462,765.804199 354.700745,767.805237 354.796417,769.801331 
	C355.527496,785.059448 366.802155,792.306824 381.126862,786.703064 
	C386.494232,784.603394 389.081573,780.273010 389.885437,774.858948 
	C390.397003,771.413574 390.570648,767.891968 390.584381,764.403259 
	C390.651855,747.264282 390.614990,730.125000 390.614990,712.650269 
	C397.052734,712.650269 403.107117,712.650269 409.162170,712.650269 
	C409.361694,712.935974 409.701172,713.195190 409.701508,713.454773 
	C409.727417,733.446167 410.158844,753.449890 409.586426,773.424866 
	C409.155487,788.461487 400.376770,798.587341 385.847321,802.486328 
	C376.153503,805.087585 366.319641,805.120544 356.775452,801.942322 
	C344.381592,797.815125 336.946472,789.067627 335.920563,775.965698 
	C335.128967,765.856445 335.471741,755.658386 335.310181,744.999756 
z"/>
<path fill="#FBFBFC" opacity="1.000000" stroke="none" 
	d="
M631.969482,774.407471 
	C631.969727,784.009033 631.969727,793.151978 631.969727,802.655457 
	C625.658630,802.655457 619.585938,802.655457 613.139038,802.655457 
	C613.139038,772.786987 613.139038,742.777527 613.139038,712.576782 
	C619.316895,712.576782 625.391479,712.576782 631.824951,712.576782 
	C631.824951,725.913757 631.824951,739.004028 631.824951,753.221558 
	C633.312927,751.504028 634.136658,750.633484 634.871155,749.693115 
	C643.991394,738.017761 653.048889,726.292603 662.283142,714.708313 
	C663.250549,713.494751 665.215149,712.500183 666.764221,712.429016 
	C672.557434,712.162659 678.370178,712.322449 685.426331,712.322449 
	C674.535217,726.154541 664.227234,739.245972 653.822937,752.459839 
	C664.325684,769.152161 674.739685,785.703491 685.631592,803.014282 
	C678.303711,803.014282 671.875671,803.204895 665.476746,802.857666 
	C664.155457,802.786011 662.614624,800.919739 661.731995,799.527466 
	C654.528015,788.165100 647.456421,776.718811 640.061646,764.843872 
	C637.080200,767.987854 631.573120,768.143738 631.969482,774.407471 
z"/>
<path fill="#F57D1A" opacity="1.000000" stroke="none" 
	d="
M149.371399,378.178619 
	C151.862854,378.965607 154.754044,379.477661 156.329941,381.195984 
	C166.291748,392.058228 175.990234,403.162994 185.721405,414.235382 
	C197.091125,427.172241 208.353165,440.203979 219.760315,453.107544 
	C228.869400,463.411652 238.122742,473.588226 247.318985,483.815186 
	C250.067978,486.872314 252.840271,489.908447 255.916595,493.390381 
	C254.796921,495.921844 253.362503,498.017181 251.928070,500.112518 
	C241.217026,498.435028 230.505981,496.757538 219.389343,494.643707 
	C216.601227,490.883972 214.471237,487.339874 211.793152,484.274689 
	C199.232376,469.898651 186.495926,455.676300 173.873734,441.353668 
	C167.620026,434.257446 161.684357,426.867981 155.197311,419.995850 
	C151.960648,416.567047 149.629913,411.235626 143.389145,412.080719 
	C145.313782,400.874268 147.238419,389.667847 149.371399,378.178619 
z"/>
<path fill="#31C4CF" opacity="1.000000" stroke="none" 
	d="
M518.469116,667.175476 
	C518.146729,663.948608 517.462463,660.479187 518.425781,657.551941 
	C532.908081,613.546387 547.602783,569.610718 562.267395,525.665283 
	C563.054260,523.307373 564.015686,521.007874 565.335083,518.247925 
	C566.818604,517.813232 567.862854,517.811829 568.907104,517.810425 
	C572.797180,528.294189 576.700684,538.772949 580.553589,549.270386 
	C580.886597,550.177795 580.885193,551.207886 580.680176,552.649719 
	C579.277405,554.694519 577.843811,556.138428 577.256409,557.869385 
	C574.533875,565.891785 572.125244,574.020081 569.459351,582.062439 
	C562.081116,604.320312 554.576782,626.536682 547.293884,648.825500 
	C546.581482,651.005920 547.056335,653.574341 546.980042,655.962646 
	C537.611206,659.703491 528.242371,663.444275 518.469116,667.175476 
z"/>
<path fill="#FAFBFC" opacity="1.000000" stroke="none" 
	d="
M181.034515,803.019409 
	C177.568298,803.019409 174.595703,803.019409 171.306351,803.019409 
	C171.306351,772.775269 171.306351,742.869141 171.306351,712.640686 
	C188.402191,712.640686 205.475967,712.640686 222.861267,712.640686 
	C222.861267,717.638245 222.861267,722.547302 222.861267,728.011963 
	C212.163437,728.011963 201.435928,728.011963 190.443222,728.011963 
	C190.443222,734.807129 190.443222,741.054260 190.443222,747.734741 
	C200.422623,747.734741 210.341446,747.734741 220.595901,747.734741 
	C220.595901,753.193420 220.595901,758.226685 220.595901,763.753479 
	C210.480927,763.753479 200.562576,763.753479 190.411011,763.753479 
	C190.411011,771.659851 190.411011,779.076904 190.411011,786.899048 
	C201.154572,786.899048 211.747101,786.899048 222.752625,786.899048 
	C222.752625,792.323364 222.752625,797.365356 222.752625,803.019409 
	C209.071274,803.019409 195.299728,803.019409 181.034515,803.019409 
z"/>
<path fill="#5481D0" opacity="1.000000" stroke="none" 
	d="
M582.211182,182.548111 
	C554.958313,188.622498 527.536011,194.450882 500.089081,200.161346 
	C480.928467,204.147812 461.743378,208.019226 442.540405,211.795563 
	C440.690338,212.159393 438.636078,211.484787 436.304749,211.123016 
	C443.805115,202.100174 451.677338,193.246521 460.161316,184.420959 
	C463.120270,184.819122 465.554596,185.775726 467.797241,185.442535 
	C473.199921,184.639847 478.503815,183.189346 483.863770,182.078339 
	C506.101349,177.468964 528.357788,172.948639 550.564636,168.196320 
	C552.585938,167.763763 554.303040,165.910172 556.161438,164.716492 
	C565.876770,168.950470 574.716003,174.476974 582.211182,182.548111 
z"/>
<path fill="#F57B1B" opacity="1.000000" stroke="none" 
	d="
M308.952393,544.988525 
	C308.795624,559.111267 311.536499,572.582458 317.746124,585.724304 
	C316.907898,586.541931 316.237701,586.753540 315.750397,587.176086 
	C303.416748,597.870239 291.067200,608.546875 278.844177,619.366516 
	C277.744598,620.339844 277.484528,622.261475 276.834564,623.742737 
	C275.722534,623.327271 274.610504,622.911743 273.041748,622.010742 
	C271.997681,621.370361 271.410339,621.215576 270.822998,621.060791 
	C270.294373,620.955872 269.765747,620.850952 268.933472,620.230652 
	C268.039886,619.505920 267.449951,619.296570 266.860016,619.087158 
	C266.860016,619.087219 266.960907,619.055786 266.796661,618.836243 
	C266.034424,618.450012 265.436462,618.283264 264.838501,618.116516 
	C264.838501,618.116516 264.863708,618.150696 264.850494,618.167725 
	C263.729980,616.889648 262.692535,615.526123 261.503265,614.311157 
	C256.386597,609.083984 251.225311,603.900574 246.359131,598.302002 
	C263.429016,583.431580 280.196472,568.932861 297.028870,554.509888 
	C300.888855,551.202454 304.971954,548.155396 308.952393,544.988525 
z"/>
<path fill="#70A4E5" opacity="1.000000" stroke="none" 
	d="
M498.025146,39.297661 
	C516.682251,37.906548 533.430603,50.736519 537.430481,69.483864 
	C541.397278,88.076241 530.999695,106.422562 512.355347,112.649643 
	C507.319672,87.936592 502.672424,63.617123 498.025146,39.297661 
z"/>
<path fill="#F3741E" opacity="1.000000" stroke="none" 
	d="
M143.266693,412.450378 
	C149.629913,411.235626 151.960648,416.567047 155.197311,419.995850 
	C161.684357,426.867981 167.620026,434.257446 173.873734,441.353668 
	C186.495926,455.676300 199.232376,469.898651 211.793152,484.274689 
	C214.471237,487.339874 216.601227,490.883972 219.001404,494.564148 
	C200.524246,490.405975 183.736588,482.370758 169.438919,469.750122 
	C154.974976,456.982758 146.848831,440.588684 143.417664,421.379730 
	C143.184616,418.332306 143.164429,415.576202 143.266693,412.450378 
z"/>
<path fill="#27C0CC" opacity="1.000000" stroke="none" 
	d="
M547.322144,655.895081 
	C547.056335,653.574341 546.581482,651.005920 547.293884,648.825500 
	C554.576782,626.536682 562.081116,604.320312 569.459351,582.062439 
	C572.125244,574.020081 574.533875,565.891785 577.256409,557.869385 
	C577.843811,556.138428 579.277405,554.694519 580.682617,553.057861 
	C582.340271,558.772766 584.309448,564.491028 584.806213,570.334412 
	C586.288696,587.772034 585.617065,605.043884 578.051331,621.341003 
	C573.392944,631.375671 567.353638,640.358398 558.585938,647.324341 
	C557.592224,648.113892 556.913513,649.300049 556.042480,650.642944 
	C553.218933,652.598206 550.441589,654.212891 547.322144,655.895081 
z"/>
<path fill="#F16D22" opacity="1.000000" stroke="none" 
	d="
M277.091064,623.936035 
	C277.484528,622.261475 277.744598,620.339844 278.844177,619.366516 
	C291.067200,608.546875 303.416748,597.870239 315.750397,587.176086 
	C316.237701,586.753540 316.907898,586.541931 317.809265,586.082275 
	C324.366486,594.727051 330.607300,603.521606 336.686340,612.767700 
	C329.535828,619.133179 322.495575,624.988403 315.618042,631.028870 
	C314.665588,631.865417 314.517456,633.617737 313.996948,634.946106 
	C301.167938,633.416016 289.022583,629.569458 277.091064,623.936035 
z"/>
<path fill="#27C0CC" opacity="1.000000" stroke="none" 
	d="
M590.901917,424.941467 
	C596.743591,419.733276 602.585205,414.525085 609.075684,409.210388 
	C623.410156,413.998352 637.055420,419.011169 650.808472,423.708038 
	C654.471130,424.958893 658.464539,425.241272 662.306091,425.968262 
	C662.967163,431.976257 663.628296,437.984222 664.311890,444.445251 
	C663.900085,446.011078 663.465698,447.123840 662.583740,448.617676 
	C660.164917,448.844299 658.043640,449.111481 656.245483,448.471161 
	C634.436646,440.705505 612.675476,432.806091 590.901917,424.941467 
z"/>
<path fill="#4F7CCC" opacity="1.000000" stroke="none" 
	d="
M556.123962,164.447571 
	C554.303040,165.910172 552.585938,167.763763 550.564636,168.196320 
	C528.357788,172.948639 506.101349,177.468964 483.863770,182.078339 
	C478.503815,183.189346 473.199921,184.639847 467.797241,185.442535 
	C465.554596,185.775726 463.120270,184.819122 460.461731,184.273758 
	C485.680389,161.525421 514.179993,150.260849 548.437683,160.906311 
	C549.701904,161.299164 550.984436,161.632996 552.652344,161.979416 
	C553.046204,161.964493 553.020569,161.977127 553.192383,162.214279 
	C553.935242,162.614838 554.506226,162.778244 555.077271,162.941650 
	C555.413696,163.353989 555.750061,163.766327 556.123962,164.447571 
z"/>
<path fill="#FDA706" opacity="1.000000" stroke="none" 
	d="
M60.470238,522.122498 
	C51.443134,494.644104 75.252434,467.498627 103.603889,473.056305 
	C107.023216,473.726593 110.281212,475.219818 113.674736,476.896820 
	C100.114952,489.176727 86.535851,500.940155 72.847939,512.575562 
	C68.882385,515.946472 64.604790,518.950378 60.470238,522.122498 
z"/>
<path fill="#4ECDD9" opacity="1.000000" stroke="none" 
	d="
M692.363464,656.067932 
	C689.864685,661.309204 687.365845,666.550476 684.232300,671.811646 
	C670.974243,667.354919 658.374390,662.810791 645.719849,658.424011 
	C636.355530,655.177856 626.920227,652.136475 617.516479,649.003906 
	C618.415710,643.460266 619.314880,637.916687 620.872314,632.213501 
	C623.646362,632.974731 625.715637,634.026917 627.885559,634.794739 
	C640.524109,639.266663 653.138489,643.815613 665.857117,648.049866 
	C674.612000,650.964539 683.522522,653.411804 692.363464,656.067932 
z"/>
<path fill="#1DBDC8" opacity="1.000000" stroke="none" 
	d="
M662.322876,425.538757 
	C658.464539,425.241272 654.471130,424.958893 650.808472,423.708038 
	C637.055420,419.011169 623.410156,413.998352 609.364746,409.045715 
	C613.473389,401.766327 617.941772,394.545166 622.890991,387.367004 
	C633.874756,390.943268 644.377747,394.476532 654.880676,398.009796 
	C657.367065,407.042938 659.853394,416.076080 662.322876,425.538757 
z"/>
<path fill="#F78815" opacity="1.000000" stroke="none" 
	d="
M79.870560,544.527649 
	C75.623886,541.245422 71.377205,537.963135 67.337738,534.191467 
	C80.832138,522.183228 94.072258,510.609467 107.428787,499.171631 
	C113.085289,494.327728 118.986412,489.769409 124.776352,485.081268 
	C127.126007,489.061157 129.475677,493.041046 131.799576,497.600159 
	C127.774124,501.364075 123.687622,504.446381 119.791153,507.752686 
	C108.552658,517.289062 97.312599,526.827087 86.258232,536.574341 
	C83.745232,538.790222 81.979980,541.854065 79.870560,544.527649 
z"/>
<path fill="#FB9B0C" opacity="1.000000" stroke="none" 
	d="
M124.634598,484.785919 
	C118.986412,489.769409 113.085289,494.327728 107.428787,499.171631 
	C94.072258,510.609467 80.832138,522.183228 67.249130,533.864380 
	C64.829781,530.311707 62.706234,526.596680 60.526466,522.502075 
	C64.604790,518.950378 68.882385,515.946472 72.847939,512.575562 
	C86.535851,500.940155 100.114952,489.176727 113.903076,477.160400 
	C117.544724,479.402710 121.018776,481.946655 124.634598,484.785919 
z"/>
<path fill="#F3741E" opacity="1.000000" stroke="none" 
	d="
M80.130234,544.744324 
	C81.979980,541.854065 83.745232,538.790222 86.258232,536.574341 
	C97.312599,526.827087 108.552658,517.289062 119.791153,507.752686 
	C123.687622,504.446381 127.774124,501.364075 132.000732,497.892700 
	C133.042297,502.774017 133.856949,507.942078 134.209808,513.562866 
	C132.411163,514.631348 130.851227,514.984985 129.772247,515.903564 
	C119.736549,524.447266 109.717422,533.013550 99.861694,541.762756 
	C97.862137,543.537842 96.569519,546.109314 94.951004,548.313599 
	C90.097305,547.196045 85.243607,546.078491 80.130234,544.744324 
z"/>
<path fill="#3FC8D4" opacity="1.000000" stroke="none" 
	d="
M692.553711,655.746582 
	C683.522522,653.411804 674.612000,650.964539 665.857117,648.049866 
	C653.138489,643.815613 640.524109,639.266663 627.885559,634.794739 
	C625.715637,634.026917 623.646362,632.974731 621.158997,631.982056 
	C622.579773,629.017273 624.372131,626.124268 626.848267,623.099976 
	C628.022339,623.044495 628.540283,623.043030 628.998779,623.207520 
	C645.014893,628.952393 660.992126,634.807983 677.055603,640.416992 
	C682.310608,642.251953 687.787537,643.451233 693.163025,644.941162 
	C693.023315,648.435852 692.883606,651.930481 692.553711,655.746582 
z"/>
<path fill="#689ADF" opacity="1.000000" stroke="none" 
	d="
M497.629578,39.231304 
	C502.672424,63.617123 507.319672,87.936592 511.981506,112.671356 
	C508.939270,113.747261 505.882416,114.407883 502.412811,114.577667 
	C500.154755,102.690422 498.456207,91.267769 496.425415,79.904495 
	C494.101715,66.902390 491.482758,53.953053 488.992065,40.980789 
	C491.739380,40.375507 494.486725,39.770229 497.629578,39.231304 
z"/>
<path fill="#5A88D4" opacity="1.000000" stroke="none" 
	d="
M488.620544,40.980858 
	C491.482758,53.953053 494.101715,66.902390 496.425415,79.904495 
	C498.456207,91.267769 500.154755,102.690422 502.002258,114.531097 
	C498.885345,114.829865 495.766174,114.684380 492.312897,113.872681 
	C491.748291,110.580704 491.711395,107.920761 491.254913,105.334900 
	C488.870972,91.830795 486.549805,78.311539 483.853333,64.868462 
	C482.567566,58.458496 480.497925,52.205765 478.783356,45.881813 
	C481.938599,44.248188 485.093842,42.614555 488.620544,40.980858 
z"/>
<path fill="#5481D0" opacity="1.000000" stroke="none" 
	d="
M478.464111,45.970840 
	C480.497925,52.205765 482.567566,58.458496 483.853333,64.868462 
	C486.549805,78.311539 488.870972,91.830795 491.254913,105.334900 
	C491.711395,107.920761 491.748291,110.580704 491.966919,113.661156 
	C488.085754,112.645958 484.216431,111.176071 480.153198,108.981888 
	C477.223083,91.793015 474.534363,75.320084 471.645294,58.882385 
	C471.449799,57.770046 469.745605,56.922867 468.743103,55.952354 
	C471.877014,52.654850 475.010956,49.357361 478.464111,45.970840 
z"/>
<path fill="#5BD7CD" opacity="1.000000" stroke="none" 
	d="
M617.440247,649.389526 
	C626.920227,652.136475 636.355530,655.177856 645.719849,658.424011 
	C658.374390,662.810791 670.974243,667.354919 683.952515,671.989624 
	C681.169434,674.862061 678.031494,677.576416 674.385742,680.058777 
	C672.223877,678.826721 670.677368,677.538086 668.897705,676.875244 
	C659.921875,673.531799 650.949463,670.155579 641.849670,667.176147 
	C634.669250,664.825134 627.305908,663.032776 620.023804,660.992310 
	C619.137207,657.253235 618.250549,653.514221 617.440247,649.389526 
z"/>
<path fill="#ED6227" opacity="1.000000" stroke="none" 
	d="
M314.369385,635.102783 
	C314.517456,633.617737 314.665588,631.865417 315.618042,631.028870 
	C322.495575,624.988403 329.535828,619.133179 336.844177,613.070740 
	C345.124329,619.426453 353.084839,625.930664 361.262634,632.723877 
	C346.084747,637.593262 330.485931,637.937378 314.369385,635.102783 
z"/>
<path fill="#5FDCC6" opacity="1.000000" stroke="none" 
	d="
M620.037598,661.353882 
	C627.305908,663.032776 634.669250,664.825134 641.849670,667.176147 
	C650.949463,670.155579 659.921875,673.531799 668.897705,676.875244 
	C670.677368,677.538086 672.223877,678.826721 674.051880,680.178467 
	C653.480774,693.110596 627.373352,681.666321 620.037598,661.353882 
z"/>
<path fill="#0FB7C3" opacity="1.000000" stroke="none" 
	d="
M654.862732,397.641846 
	C644.377747,394.476532 633.874756,390.943268 623.135986,387.122253 
	C625.767212,378.005768 628.634155,369.177094 631.782837,360.108276 
	C642.375183,370.681946 649.815002,383.244019 654.862732,397.641846 
z"/>
<path fill="#4670C4" opacity="1.000000" stroke="none" 
	d="
M468.475403,56.146389 
	C469.745605,56.922867 471.449799,57.770046 471.645294,58.882385 
	C474.534363,75.320084 477.223083,91.793015 479.932861,108.724899 
	C462.101318,99.693115 456.537750,74.558319 468.475403,56.146389 
z"/>
<path fill="#31C4CF" opacity="1.000000" stroke="none" 
	d="
M693.224182,644.532104 
	C687.787537,643.451233 682.310608,642.251953 677.055603,640.416992 
	C660.992126,634.807983 645.014893,628.952393 628.998779,623.207520 
	C628.540283,623.043030 628.022339,623.044495 627.131348,622.930664 
	C629.236572,620.589233 631.742554,618.285828 634.757812,616.206177 
	C636.234314,617.021851 637.134827,617.796509 638.178955,618.177551 
	C650.206238,622.566162 662.204590,627.043884 674.321045,631.173889 
	C679.930298,633.085815 685.781067,634.288879 691.522339,635.813293 
	C692.110046,638.583252 692.697693,641.353149 693.224182,644.532104 
z"/>
<path fill="#ED6227" opacity="1.000000" stroke="none" 
	d="
M95.362907,548.470947 
	C96.569519,546.109314 97.862137,543.537842 99.861694,541.762756 
	C109.717422,533.013550 119.736549,524.447266 129.772247,515.903564 
	C130.851227,514.984985 132.411163,514.631348 134.076965,513.985474 
	C132.914825,533.866394 116.469368,548.626892 95.362907,548.470947 
z"/>
<path fill="#1DBDC8" opacity="1.000000" stroke="none" 
	d="
M691.450806,635.440247 
	C685.781067,634.288879 679.930298,633.085815 674.321045,631.173889 
	C662.204590,627.043884 650.206238,622.566162 638.178955,618.177551 
	C637.134827,617.796509 636.234314,617.021851 635.088989,616.108398 
	C637.851501,614.405762 640.791992,613.024658 644.434326,611.810181 
	C651.421509,614.467407 657.614624,617.233704 664.016418,619.376526 
	C671.485840,621.876831 679.137573,623.832520 686.710205,626.024475 
	C688.266541,629.038696 689.822937,632.052979 691.450806,635.440247 
z"/>
<path fill="#0FB7C3" opacity="1.000000" stroke="none" 
	d="
M686.596680,625.723450 
	C679.137573,623.832520 671.485840,621.876831 664.016418,619.376526 
	C657.614624,617.233704 651.421509,614.467407 644.796143,611.744446 
	C656.084167,606.582336 671.946838,610.355103 682.260681,620.568359 
	C683.780334,622.073120 685.081116,623.798950 686.596680,625.723450 
z"/>
<path fill="#0933A6" opacity="1.000000" stroke="none" 
	d="
M554.883545,162.711731 
	C554.506226,162.778244 553.935242,162.614838 553.186707,162.204773 
	C553.569458,162.132690 554.129639,162.307251 554.883545,162.711731 
z"/>
<path fill="#F16D22" opacity="1.000000" stroke="none" 
	d="
M271.031525,621.289612 
	C271.410339,621.215576 271.997681,621.370361 272.792236,621.755493 
	C272.412994,621.830017 271.826508,621.674255 271.031525,621.289612 
z"/>
<path fill="#F0441C" opacity="1.000000" stroke="none" 
	d="
M267.020416,619.356567 
	C267.449951,619.296570 268.039886,619.505920 268.777802,620.004883 
	C268.344147,620.071716 267.762482,619.848816 267.020416,619.356567 
z"/>
<path fill="#F0441C" opacity="1.000000" stroke="none" 
	d="
M265.000000,618.393250 
	C265.436462,618.283264 266.034424,618.450012 266.808105,618.887817 
	C266.376404,618.995972 265.768951,618.832947 265.000000,618.393250 
z"/>
<path fill="#0933A6" opacity="1.000000" stroke="none" 
	d="
M320.850952,170.213638 
	C320.930176,170.440735 320.707672,170.665054 320.189087,170.898102 
	C320.101318,170.668320 320.320038,170.436325 320.850952,170.213638 
z"/>
<path fill="#012160" opacity="1.000000" stroke="none" 
	d="
M568.935059,517.854492 
	C567.862854,517.811829 566.818604,517.813232 565.388184,517.878418 
	C551.632385,515.570251 538.262817,513.198364 524.473389,510.833710 
	C504.983673,502.490570 485.913727,494.140167 466.476196,485.721069 
	C457.000061,482.424591 447.891510,479.196777 438.063995,475.785370 
	C430.229370,474.418274 423.113678,473.234802 415.540161,471.931274 
	C411.286560,471.873108 407.485962,471.834412 403.696167,472.018311 
	C396.460846,472.369446 389.231720,472.847443 381.611938,473.253601 
	C353.785065,478.664032 331.465424,491.589752 317.501465,516.750977 
	C317.501465,516.750977 317.257477,516.760437 316.885376,516.703979 
	C309.673859,514.482056 302.834442,512.316650 295.628754,509.974365 
	C280.852814,506.739044 266.443115,503.680634 252.033401,500.622223 
	C252.033401,500.622223 252.113007,500.338745 252.020538,500.225647 
	C253.362503,498.017181 254.796921,495.921844 256.266266,493.469482 
	C262.895416,485.666626 269.489594,478.220795 276.238342,470.467346 
	C283.523712,463.696991 290.654510,457.234253 297.919189,450.468414 
	C308.738708,443.056122 319.424347,435.946930 330.317322,428.555054 
	C350.236664,414.273590 366.779266,397.409546 378.331207,375.177246 
	C389.192322,353.354553 394.169434,331.191040 388.898254,307.580322 
	C386.124878,295.157684 381.386261,283.573029 371.941559,274.486847 
	C371.941559,274.486847 371.993317,274.218201 372.070557,274.105316 
	C392.257111,260.104187 408.898956,242.544342 424.826874,224.230194 
	C426.459320,222.353180 428.042053,220.432877 429.835205,218.253357 
	C430.366638,217.996109 430.710724,218.018158 431.311584,218.034439 
	C434.124634,223.868210 436.680969,229.707733 439.460815,235.806915 
	C442.372437,245.473297 445.060486,254.880035 447.898926,264.645447 
	C449.623901,276.071564 451.198456,287.139038 452.897491,298.604309 
	C453.382721,330.092590 458.607544,360.017029 475.365173,386.861755 
	C489.999786,410.305573 509.673462,427.400452 537.409485,433.574402 
	C540.647217,434.295074 543.984314,434.568970 547.710022,435.094238 
	C548.144653,435.138489 548.341309,435.195618 548.474182,435.554016 
	C550.600037,447.801392 552.592957,459.690399 554.612122,471.953247 
	C559.387634,487.541138 564.136963,502.755188 568.886230,517.969238 
	C568.886230,517.969238 568.963074,517.898560 568.935059,517.854492 
M442.151733,393.189301 
	C439.598816,393.425995 437.033264,393.573547 434.497589,393.932159 
	C432.925629,394.154480 431.412079,394.971436 429.849609,395.046051 
	C424.453125,395.303833 421.156647,397.691742 420.859436,403.091278 
	C420.430786,410.879456 420.056458,418.790710 420.986969,426.488922 
	C421.553741,431.178009 423.949066,436.038208 426.731659,439.965149 
	C429.992523,444.567078 436.370728,444.966614 440.672180,442.039337 
	C444.462280,439.460052 445.871857,433.958221 443.764130,428.998627 
	C442.805908,426.743835 441.370636,424.691742 440.769501,423.634277 
	C442.283539,418.626587 443.794678,414.610962 444.658661,410.460602 
	C445.350922,407.134918 443.905762,405.053101 439.987793,405.353729 
	C436.337433,405.633820 432.652222,405.772919 429.003204,405.580139 
	C427.802124,405.516693 426.666077,404.223022 425.500275,403.491882 
	C426.762848,402.366394 427.866913,400.746155 429.338959,400.274567 
	C430.481934,399.908386 432.084137,400.975739 433.457397,401.398254 
	C438.391998,395.514099 440.412201,395.364899 445.262787,400.224701 
	C444.439087,397.982941 443.615387,395.741150 442.151733,393.189301 
M414.188599,413.828430 
	C414.004333,411.517578 414.097382,409.141785 413.574768,406.910156 
	C412.650116,402.961884 409.358246,401.198975 405.566498,402.446747 
	C401.683228,403.724640 399.812531,407.031464 400.426056,410.568817 
	C400.849640,413.011169 403.277008,415.306274 405.259613,417.193787 
	C406.257965,418.144318 408.259430,418.041321 409.703156,418.389587 
	C410.822083,439.691193 410.822083,439.691193 415.039337,440.001801 
	C414.762665,431.695831 414.480591,423.226898 414.188599,413.828430 
z"/>
<path fill="#FDAE0C" opacity="1.000000" stroke="none" 
	d="
M371.668488,274.714539 
	C381.386261,283.573029 386.124878,295.157684 388.898254,307.580322 
	C394.169434,331.191040 389.192322,353.354553 378.381317,374.823914 
	C368.214508,363.918854 358.294525,352.819550 348.427887,341.673035 
	C341.954224,334.359680 335.561249,326.974915 329.124634,319.628723 
	C326.724396,316.889282 324.403076,314.071167 321.869019,311.460510 
	C317.321411,306.775513 313.265198,301.367889 306.139740,299.671631 
	C330.606873,298.728607 351.572205,288.364838 371.668488,274.714539 
z"/>
<path fill="#FDAE0C" opacity="1.000000" stroke="none" 
	d="
M296.095764,299.225464 
	C296.172791,299.082520 296.341125,299.062012 296.742920,299.142639 
	C296.976379,299.243713 296.595001,299.469360 296.595001,299.469360 
	C296.595001,299.469360 296.187042,299.347931 296.095764,299.225464 
z"/>
<path fill="#3EC8D4" opacity="1.000000" stroke="none" 
	d="
M554.585938,471.579407 
	C552.592957,459.690399 550.600037,447.801392 548.520447,435.462646 
	C551.361084,435.077606 554.288269,435.142273 557.672729,435.546753 
	C559.585754,437.146790 560.850159,438.849335 562.535645,439.578308 
	C566.480164,441.284241 570.624817,442.528259 574.691467,443.950592 
	C593.761963,450.620453 612.802063,457.379547 631.919006,463.913513 
	C640.500671,466.846619 649.236938,469.327240 657.903076,472.013153 
	C653.673706,483.087860 646.557617,492.034332 637.175476,499.406311 
	C635.354797,498.475555 633.986694,497.562317 632.484009,497.027527 
	C625.463501,494.529114 618.386597,492.189423 611.365295,489.693237 
	C593.412659,483.310822 575.487183,476.851807 557.508972,470.542786 
	C556.749451,470.276245 555.569824,471.206604 554.585938,471.579407 
z"/>
<path fill="#48CAD7" opacity="1.000000" stroke="none" 
	d="
M554.612122,471.953247 
	C555.569824,471.206604 556.749451,470.276245 557.508972,470.542786 
	C575.487183,476.851807 593.412659,483.310822 611.365295,489.693237 
	C618.386597,492.189423 625.463501,494.529114 632.484009,497.027527 
	C633.986694,497.562317 635.354797,498.475555 636.876953,499.542969 
	C623.935242,510.088104 608.872559,515.194702 592.634644,516.927490 
	C585.086487,517.732971 577.442383,517.640442 569.364014,517.962158 
	C564.136963,502.755188 559.387634,487.541138 554.612122,471.953247 
z"/>
<path fill="#31C4CF" opacity="1.000000" stroke="none" 
	d="
M658.082764,471.685486 
	C649.236938,469.327240 640.500671,466.846619 631.919006,463.913513 
	C612.802063,457.379547 593.761963,450.620453 574.691467,443.950592 
	C570.624817,442.528259 566.480164,441.284241 562.535645,439.578308 
	C560.850159,438.849335 559.585754,437.146790 558.058350,435.562988 
	C569.517456,434.346893 580.317444,431.133698 590.563660,425.014587 
	C612.675476,432.806091 634.436646,440.705505 656.245483,448.471161 
	C658.043640,449.111481 660.164917,448.844299 662.566833,448.998779 
	C661.419250,456.451813 659.840881,463.904816 658.082764,471.685486 
z"/>
<path fill="#F78815" opacity="1.000000" stroke="none" 
	d="
M295.994995,510.151276 
	C302.834442,512.316650 309.673859,514.482056 316.845825,516.819458 
	C314.485168,526.055359 311.791992,535.119263 309.025604,544.585876 
	C304.971954,548.155396 300.888855,551.202454 297.028870,554.509888 
	C280.196472,568.932861 263.429016,583.431580 246.294800,597.964111 
	C237.279068,587.179138 233.532578,574.620178 233.291367,560.726440 
	C234.043793,561.567200 234.557846,562.606873 234.994675,563.490295 
	C239.982513,559.208801 244.606354,555.248169 249.221115,551.276855 
	C260.757324,541.349304 272.326447,531.459534 283.803619,521.464172 
	C287.982239,517.825012 291.937714,513.929749 295.994995,510.151276 
z"/>
<path fill="#F99011" opacity="1.000000" stroke="none" 
	d="
M295.628754,509.974365 
	C291.937714,513.929749 287.982239,517.825012 283.803619,521.464172 
	C272.326447,531.459534 260.757324,541.349304 249.221115,551.276855 
	C244.606354,555.248169 239.982513,559.208801 234.994675,563.490295 
	C234.557846,562.606873 234.043793,561.567200 233.317993,560.284119 
	C233.079269,558.954041 233.052307,557.867371 233.272110,556.123901 
	C233.421509,554.010193 233.324142,552.553284 233.226776,551.096375 
	C235.266205,532.956787 241.914642,516.533264 251.900055,500.962372 
	C266.443115,503.680634 280.852814,506.739044 295.628754,509.974365 
z"/>
<path fill="#F78815" opacity="1.000000" stroke="none" 
	d="
M233.166412,551.496704 
	C233.324142,552.553284 233.421509,554.010193 233.299500,555.718079 
	C233.088745,554.611694 233.097397,553.254395 233.166412,551.496704 
z"/>
<path fill="#5FDCC6" opacity="1.000000" stroke="none" 
	d="
M382.000000,473.272736 
	C389.231720,472.847443 396.460846,472.369446 403.696167,472.018311 
	C407.485962,471.834412 411.286560,471.873108 415.479126,472.285583 
	C414.859955,475.199158 413.689362,477.586609 412.851654,480.085632 
	C404.508087,504.976501 396.256348,529.898254 387.866364,554.773376 
	C386.872040,557.721436 385.206146,560.443054 383.851593,563.269592 
	C376.105377,553.597595 367.744812,544.564819 357.271179,537.133057 
	C358.813995,534.298828 360.915802,532.260620 361.819489,529.785034 
	C368.678284,510.995789 375.302582,492.120911 382.000000,473.272736 
z"/>
<path fill="#5BD7CD" opacity="1.000000" stroke="none" 
	d="
M383.945160,563.596680 
	C385.206146,560.443054 386.872040,557.721436 387.866364,554.773376 
	C396.256348,529.898254 404.508087,504.976501 412.851654,480.085632 
	C413.689362,477.586609 414.859955,475.199158 415.937012,472.405609 
	C423.113678,473.234802 430.229370,474.418274 437.671936,475.802246 
	C437.051056,479.326324 436.225281,482.690369 435.136841,485.967133 
	C423.615753,520.651123 412.098999,555.336731 400.407501,589.963318 
	C399.541138,592.529236 397.336029,594.643188 395.388275,596.985596 
	C394.811707,584.831604 390.633453,573.976440 383.945160,563.596680 
z"/>
<path fill="#62DEC0" opacity="1.000000" stroke="none" 
	d="
M381.611938,473.253601 
	C375.302582,492.120911 368.678284,510.995789 361.819489,529.785034 
	C360.915802,532.260620 358.813995,534.298828 357.090607,536.850830 
	C344.031158,530.452942 331.148224,523.743835 317.883362,516.892883 
	C331.465424,491.589752 353.785065,478.664032 381.611938,473.253601 
z"/>
<path fill="#052463" opacity="1.000000" stroke="none" 
	d="
M451.039856,779.922913 
	C451.039856,774.307617 451.039856,769.183411 451.039856,763.236084 
	C457.664886,763.583130 463.972137,763.472656 470.134796,764.362976 
	C476.033264,765.215027 478.926971,769.142639 479.032135,774.648926 
	C479.151611,780.904968 476.429047,785.198547 470.345947,786.192261 
	C464.207550,787.195068 457.881134,787.046936 451.039856,787.437134 
	C451.039856,784.619751 451.039856,782.516846 451.039856,779.922913 
z"/>
<path fill="#052463" opacity="1.000000" stroke="none" 
	d="
M471.160278,729.480103 
	C476.423462,731.588928 477.516724,735.508545 476.812012,740.193726 
	C476.117981,744.807739 472.884979,747.274597 468.634491,747.620972 
	C463.046082,748.076233 457.392639,747.732727 451.402344,747.732727 
	C451.402344,741.629211 451.402344,735.244751 451.402344,727.683472 
	C457.813477,728.223083 464.303558,728.769409 471.160278,729.480103 
z"/>
<path fill="#052463" opacity="1.000000" stroke="none" 
	d="
M295.278992,771.024048 
	C289.757874,784.080566 280.739532,788.291504 261.611572,786.831787 
	C261.611572,767.515869 261.611572,748.165527 261.611572,728.329773 
	C269.128723,727.924438 276.709625,727.338684 283.922272,730.524536 
	C292.929413,734.502930 296.335205,742.402283 296.827118,751.402710 
	C297.175507,757.776428 295.955750,764.235962 295.278992,771.024048 
z"/>
<path fill="#E4E6EB" opacity="1.000000" stroke="none" 
	d="
M442.471741,393.344360 
	C443.615387,395.741150 444.439087,397.982941 445.262787,400.224701 
	C440.412201,395.364899 438.391998,395.514099 433.457397,401.398254 
	C432.084137,400.975739 430.481934,399.908386 429.338959,400.274567 
	C427.866913,400.746155 426.762848,402.366394 425.500275,403.491882 
	C426.666077,404.223022 427.802124,405.516693 429.003204,405.580139 
	C432.652222,405.772919 436.337433,405.633820 439.987793,405.353729 
	C443.905762,405.053101 445.350922,407.134918 444.658661,410.460602 
	C443.794678,414.610962 442.283539,418.626587 440.769501,423.634277 
	C441.370636,424.691742 442.805908,426.743835 443.764130,428.998627 
	C445.871857,433.958221 444.462280,439.460052 440.672180,442.039337 
	C436.370728,444.966614 429.992523,444.567078 426.731659,439.965149 
	C423.949066,436.038208 421.553741,431.178009 420.986969,426.488922 
	C420.056458,418.790710 420.430786,410.879456 420.859436,403.091278 
	C421.156647,397.691742 424.453125,395.303833 429.849609,395.046051 
	C431.412079,394.971436 432.925629,394.154480 434.497589,393.932159 
	C437.033264,393.573547 439.598816,393.425995 442.471741,393.344360 
M426.924377,432.290802 
	C427.156067,432.910553 427.342438,433.552002 427.626801,434.146545 
	C429.408752,437.871765 431.790344,440.635498 436.493164,439.319824 
	C439.659241,438.434052 441.245636,436.303864 440.767822,433.018250 
	C440.102173,428.440948 437.319458,426.125427 432.701294,425.749908 
	C426.623657,425.255707 425.595581,426.177795 426.924377,432.290802 
M436.835999,410.317810 
	C433.861664,410.324860 430.833801,410.011780 427.939270,410.495850 
	C426.773376,410.690826 425.000275,412.691071 425.070343,413.767792 
	C425.244415,416.443390 425.540466,420.549133 427.185333,421.410156 
	C431.419952,423.626770 439.033752,418.397156 439.436127,413.575256 
	C439.521545,412.551392 438.295868,411.418121 436.835999,410.317810 
z"/>
<path fill="#E4E6EB" opacity="1.000000" stroke="none" 
	d="
M414.193542,414.293213 
	C414.480591,423.226898 414.762665,431.695831 415.039337,440.001801 
	C410.822083,439.691193 410.822083,439.691193 409.703156,418.389587 
	C408.259430,418.041321 406.257965,418.144318 405.259613,417.193787 
	C403.277008,415.306274 400.849640,413.011169 400.426056,410.568817 
	C399.812531,407.031464 401.683228,403.724640 405.566498,402.446747 
	C409.358246,401.198975 412.650116,402.961884 413.574768,406.910156 
	C414.097382,409.141785 414.004333,411.517578 414.193542,414.293213 
M404.093658,410.392761 
	C405.384094,411.296814 406.674561,412.200867 407.964996,413.104950 
	C408.576965,412.069183 409.676697,411.028168 409.665588,409.999146 
	C409.654144,408.942383 408.557526,407.897308 407.935883,406.847137 
	C406.656006,407.762146 405.376129,408.677124 404.093658,410.392761 
z"/>
<path fill="#052463" opacity="1.000000" stroke="none" 
	d="
M426.829041,431.901306 
	C425.595581,426.177795 426.623657,425.255707 432.701294,425.749908 
	C437.319458,426.125427 440.102173,428.440948 440.767822,433.018250 
	C441.245636,436.303864 439.659241,438.434052 436.493164,439.319824 
	C431.790344,440.635498 429.408752,437.871765 427.626801,434.146545 
	C427.342438,433.552002 427.156067,432.910553 426.829041,431.901306 
z"/>
<path fill="#052463" opacity="1.000000" stroke="none" 
	d="
M437.255127,410.326538 
	C438.295868,411.418121 439.521545,412.551392 439.436127,413.575256 
	C439.033752,418.397156 431.419952,423.626770 427.185333,421.410156 
	C425.540466,420.549133 425.244415,416.443390 425.070343,413.767792 
	C425.000275,412.691071 426.773376,410.690826 427.939270,410.495850 
	C430.833801,410.011780 433.861664,410.324860 437.255127,410.326538 
z"/>
<path fill="#052463" opacity="1.000000" stroke="none" 
	d="
M404.094971,409.992432 
	C405.376129,408.677124 406.656006,407.762146 407.935852,406.847107 
	C408.557526,407.897308 409.654144,408.942383 409.665588,409.999146 
	C409.676697,411.028168 408.576965,412.069183 407.964996,413.104950 
	C406.674561,412.200867 405.384094,411.296814 404.094971,409.992432 
z"/>
</svg>